<svg xmlns="http://www.w3.org/2000/svg" width="121.02" height="121.02" viewBox="0 0 121.02 121.02">
  <g id="Group_22" data-name="Group 22" opacity="0.3">
    <circle id="Ellipse_5" data-name="Ellipse 5" cx="28.075" cy="28.075" r="28.075" transform="translate(32.435 0)" fill="#0a0a0a"/>
    <path id="Path_73" data-name="Path 73" d="M79.273,21.51H73.338a2.576,2.576,0,0,0-2.25,1.378l-2.729,5.035-7.82,14.4-7.82-14.4-2.785-5.035a2.61,2.61,0,0,0-2.25-1.378H41.747C18.679,21.51,0,41.342,0,65.845V76.619a5.4,5.4,0,0,0,5.4,5.4H115.619a5.4,5.4,0,0,0,5.4-5.4V65.845C121.02,41.342,102.313,21.51,79.273,21.51Z" transform="translate(0 39)" fill="#0a0a0a"/>
  </g>
</svg>
